<?xml version="1.0" standalone="no"?>
<!DOCTYPE svg PUBLIC "-//W3C//DTD SVG 20010904//EN"
 "http://www.w3.org/TR/2001/REC-SVG-20010904/DTD/svg10.dtd">
<svg version="1.0" xmlns="http://www.w3.org/2000/svg"
 width="763.000000pt" height="648.000000pt" viewBox="0 0 763.000000 648.000000"
 preserveAspectRatio="xMidYMid meet">
<metadata>
Created by potrace 1.15, written by Peter Selinger 2001-2017
</metadata>

<style>
path {
    fill: #ffce0a;
/*    fill: #fbbc05;
    fill: rgb(255, 230, 7); */
}
</style>

<g transform="translate(0.000000,648.000000) scale(0.100000,-0.100000)"
fill="#000000" stroke="none">
<path d="M3715 6414 c-294 -53 -572 -212 -760 -435 -435 -515 -414 -1259 48
-1746 179 -188 436 -329 694 -380 109 -21 355 -24 463 -4 467 83 861 422 1009
867 52 156 66 243 65 419 0 170 -13 258 -60 403 -149 455 -543 795 -1018 877
-110 19 -332 18 -441 -1z m334 -389 c27 -13 62 -41 79 -61 73 -88 129 -258
158 -478 21 -160 15 -575 -11 -716 -20 -113 -75 -284 -110 -344 -73 -124 -169
-169 -286 -134 -120 35 -207 203 -256 493 -14 89 -18 162 -18 380 1 292 10
376 60 550 48 166 112 267 197 309 67 33 123 34 187 1z"/>
<path d="M1970 4574 c-384 -49 -691 -221 -912 -511 -488 -639 -277 -1573 439
-1941 197 -101 370 -143 593 -143 356 0 669 129 920 381 346 346 467 855 314
1325 -143 438 -520 772 -977 866 -98 20 -302 32 -377 23z m930 -1289 l0 -215
-850 0 -850 0 0 215 0 215 850 0 850 0 0 -215z"/>
<path d="M5690 4570 c-383 -36 -745 -250 -955 -565 -228 -343 -285 -753 -159
-1140 36 -109 122 -275 188 -363 30 -39 51 -72 47 -72 -5 0 -14 6 -20 14 -23
28 -159 115 -246 159 -104 52 -212 89 -328 114 -116 25 -390 25 -507 -1 -612
-133 -1040 -658 -1040 -1275 0 -643 460 -1182 1098 -1287 140 -23 361 -14 499
20 237 59 423 161 600 330 365 346 492 887 322 1373 -46 131 -142 303 -218
387 -30 34 -24 31 81 -46 247 -181 581 -271 882 -239 552 60 1000 446 1135
981 135 533 -94 1109 -559 1409 -234 151 -542 227 -820 201z m980 -1285 l0
-215 -845 0 -845 0 0 215 0 215 845 0 845 0 0 -215z m-2623 -995 c122 -61 199
-236 239 -544 21 -162 15 -575 -11 -716 -59 -321 -167 -482 -325 -484 -96 0
-185 67 -236 178 -70 155 -104 345 -111 631 -14 589 122 956 358 964 14 1 53
-12 86 -29z"/>
</g>
</svg>
